<mxfile host="drawio-plugin" modified="2023-05-01T18:06:16.859Z" agent="5.0 (Windows NT 6.2; Win64; x64) AppleWebKit/537.36 (KHTML, like Gecko) Chrome/104.0.5112.102 Safari/537.36" etag="lNq5_Xp0LKDg-3X9-NYx" version="20.5.3" type="embed"><diagram id="23iRSUPoRavnBvh4doch" name="Page-1"><mxGraphModel dx="1561" dy="801" grid="1" gridSize="10" guides="1" tooltips="1" connect="1" arrows="1" fold="1" page="1" pageScale="1" pageWidth="827" pageHeight="1169" background="#ffffff" math="0" shadow="0"><root><mxCell id="0"/><mxCell id="1" parent="0"/><mxCell id="79" value="ParsingResultsRepository" style="rounded=0;whiteSpace=wrap;html=1;verticalAlign=top;fillColor=none;dashed=1;dashPattern=12 12;fontSize=13;fontStyle=1" vertex="1" parent="1"><mxGeometry x="1160" y="40" width="360" height="360" as="geometry"/></mxCell><mxCell id="80" value="ParsingResultsController" style="rounded=0;whiteSpace=wrap;html=1;verticalAlign=top;fillColor=none;dashed=1;dashPattern=12 12;fontSize=13;fontStyle=1" vertex="1" parent="1"><mxGeometry x="640" y="40" width="200" height="200" as="geometry"/></mxCell><mxCell id="81" value="ParsingResultsService" style="rounded=0;whiteSpace=wrap;html=1;verticalAlign=top;fillColor=none;dashed=1;dashPattern=12 12;fontSize=13;fontStyle=1" vertex="1" parent="1"><mxGeometry x="880" y="40" width="240" height="200" as="geometry"/></mxCell><mxCell id="82" value="На странице будут результирующие данные парсинга, разбитые по сайтам-целям парсинга. Изначально виден список всех доступных распарсеных сайтов, при нажатии на сайт будет открываться список возможных типов данных, при нажатии на тип будет отображаться таблица с возможностью активного поиска.&lt;br&gt;&lt;br&gt;&lt;b&gt;&lt;font style=&quot;font-size: 13px;&quot;&gt;Бэк: &lt;/font&gt;&lt;br&gt;отображение списка доступных сайтов и связанных с ними задач:&lt;/b&gt;&amp;nbsp; &lt;br&gt;вызов метода контроллера (ParsingResultsController#getAllSites()) -&lt;br&gt;вызов сервиса (ParsingResultsService#getAllSites()) -&lt;br&gt;получение из бд (ParsingResultsRepository#getAllSitesWithTasks()) -&lt;br&gt;если есть доступные сайты (даже без задач) то возвращается 200&lt;br&gt;если нет, то возвращается 204&lt;br&gt;если ошибка - 500;&lt;br&gt;&lt;br&gt;&lt;b&gt;получение данных парсинга:&lt;/b&gt;&lt;br&gt;(ParsingResultsController#getResults(site_option_id)) -&lt;br&gt;(ParsingResultsService#getResults(site_option_id)) -&lt;br&gt;&amp;nbsp;(ParsingResultsRepository#getResultsBySiteOptionId(site_option_id) -&lt;br&gt;получение данных об операции (ParsingResultsRepository#getSiteOptionsById(site_option_id)) -&lt;br&gt;получение данных из результирующей таблицы (ParsingResultsRepository#getAllResultsBySchemaAndTableName(schema, table_name))&amp;nbsp;-&lt;br&gt;если есть данные то возвращается 200&lt;br&gt;если нет - 204&lt;br&gt;если ошибка - 500" style="rounded=0;whiteSpace=wrap;html=1;gradientColor=none;fillColor=default;strokeColor=default;fontColor=default;labelBackgroundColor=none;labelBorderColor=none;align=center;" vertex="1" parent="1"><mxGeometry y="40" width="500" height="400" as="geometry"/></mxCell><mxCell id="83" value="Display Of Parsing Results" style="rounded=0;whiteSpace=wrap;html=1;fontStyle=1;fontSize=14;" vertex="1" parent="1"><mxGeometry width="200" height="40" as="geometry"/></mxCell><mxCell id="84" value="Version 1" style="text;html=1;strokeColor=none;fillColor=none;align=center;verticalAlign=middle;whiteSpace=wrap;rounded=0;" vertex="1" parent="1"><mxGeometry x="1587" width="67" height="40" as="geometry"/></mxCell><mxCell id="85" style="edgeStyle=orthogonalEdgeStyle;rounded=0;orthogonalLoop=1;jettySize=auto;html=1;exitX=1;exitY=0.5;exitDx=0;exitDy=0;entryX=0;entryY=0.5;entryDx=0;entryDy=0;" edge="1" parent="1" target="90"><mxGeometry relative="1" as="geometry"><mxPoint x="630" y="100" as="sourcePoint"/></mxGeometry></mxCell><mxCell id="86" value="Отображение списка" style="ellipse;whiteSpace=wrap;html=1;" vertex="1" parent="1"><mxGeometry x="510" y="60" width="120" height="80" as="geometry"/></mxCell><mxCell id="87" style="edgeStyle=orthogonalEdgeStyle;rounded=0;orthogonalLoop=1;jettySize=auto;html=1;exitX=1;exitY=0.5;exitDx=0;exitDy=0;entryX=0;entryY=0.5;entryDx=0;entryDy=0;" edge="1" parent="1" target="92"><mxGeometry relative="1" as="geometry"><mxPoint x="630" y="180" as="sourcePoint"/></mxGeometry></mxCell><mxCell id="88" value="Получение данных парсинга" style="ellipse;whiteSpace=wrap;html=1;" vertex="1" parent="1"><mxGeometry x="510" y="140" width="120" height="80" as="geometry"/></mxCell><mxCell id="89" style="edgeStyle=orthogonalEdgeStyle;rounded=0;orthogonalLoop=1;jettySize=auto;html=1;exitX=1;exitY=0.5;exitDx=0;exitDy=0;entryX=0;entryY=0.5;entryDx=0;entryDy=0;" edge="1" parent="1" source="90" target="94"><mxGeometry relative="1" as="geometry"/></mxCell><mxCell id="90" value="getAllSites(GET)" style="rounded=0;whiteSpace=wrap;html=1;strokeWidth=1;" vertex="1" parent="1"><mxGeometry x="680" y="80" width="120" height="40" as="geometry"/></mxCell><mxCell id="91" style="edgeStyle=orthogonalEdgeStyle;rounded=0;orthogonalLoop=1;jettySize=auto;html=1;exitX=1;exitY=0.5;exitDx=0;exitDy=0;entryX=0;entryY=0.5;entryDx=0;entryDy=0;" edge="1" parent="1" source="92" target="96"><mxGeometry relative="1" as="geometry"/></mxCell><mxCell id="92" value="getResults(GET) *site_option_id" style="rounded=0;whiteSpace=wrap;html=1;strokeWidth=1;" vertex="1" parent="1"><mxGeometry x="680" y="160" width="120" height="40" as="geometry"/></mxCell><mxCell id="93" style="edgeStyle=orthogonalEdgeStyle;rounded=0;orthogonalLoop=1;jettySize=auto;html=1;exitX=1;exitY=0.5;exitDx=0;exitDy=0;entryX=0;entryY=0.5;entryDx=0;entryDy=0;" edge="1" parent="1" source="94" target="98"><mxGeometry relative="1" as="geometry"/></mxCell><mxCell id="94" value="getAllSites()" style="rounded=0;whiteSpace=wrap;html=1;strokeWidth=1;" vertex="1" parent="1"><mxGeometry x="940" y="80" width="120" height="40" as="geometry"/></mxCell><mxCell id="95" style="edgeStyle=orthogonalEdgeStyle;rounded=0;orthogonalLoop=1;jettySize=auto;html=1;exitX=1;exitY=0.5;exitDx=0;exitDy=0;entryX=0;entryY=0.5;entryDx=0;entryDy=0;" edge="1" parent="1" source="96" target="101"><mxGeometry relative="1" as="geometry"/></mxCell><mxCell id="96" value="getResults(site_option_id)" style="rounded=0;whiteSpace=wrap;html=1;strokeWidth=1;" vertex="1" parent="1"><mxGeometry x="922.5" y="160" width="155" height="40" as="geometry"/></mxCell><mxCell id="97" style="edgeStyle=orthogonalEdgeStyle;rounded=0;orthogonalLoop=1;jettySize=auto;html=1;exitX=1;exitY=0.5;exitDx=0;exitDy=0;entryX=0;entryY=0;entryDx=0;entryDy=32.5;entryPerimeter=0;dashed=1;" edge="1" parent="1" source="98" target="106"><mxGeometry relative="1" as="geometry"><Array as="points"><mxPoint x="1540" y="100"/><mxPoint x="1540" y="112"/></Array></mxGeometry></mxCell><mxCell id="98" value="getAllSitesWithTasks()" style="rounded=0;whiteSpace=wrap;html=1;strokeWidth=1;" vertex="1" parent="1"><mxGeometry x="1270" y="80" width="140" height="40" as="geometry"/></mxCell><mxCell id="99" style="edgeStyle=orthogonalEdgeStyle;rounded=0;orthogonalLoop=1;jettySize=auto;html=1;exitX=0.5;exitY=0;exitDx=0;exitDy=0;entryX=0.5;entryY=1;entryDx=0;entryDy=0;dashed=1;" edge="1" parent="1" source="101" target="103"><mxGeometry relative="1" as="geometry"/></mxCell><mxCell id="100" style="edgeStyle=orthogonalEdgeStyle;rounded=0;orthogonalLoop=1;jettySize=auto;html=1;exitX=0.5;exitY=1;exitDx=0;exitDy=0;entryX=0.5;entryY=0;entryDx=0;entryDy=0;" edge="1" parent="1" source="101" target="105"><mxGeometry relative="1" as="geometry"/></mxCell><mxCell id="101" value="getResultsBySiteOperationId(site_option_id)" style="rounded=0;whiteSpace=wrap;html=1;strokeWidth=1;" vertex="1" parent="1"><mxGeometry x="1205" y="240" width="270" height="40" as="geometry"/></mxCell><mxCell id="102" style="edgeStyle=orthogonalEdgeStyle;rounded=0;orthogonalLoop=1;jettySize=auto;html=1;exitX=1;exitY=0.5;exitDx=0;exitDy=0;entryX=0;entryY=0;entryDx=0;entryDy=67.5;entryPerimeter=0;dashed=1;" edge="1" parent="1" source="103" target="106"><mxGeometry relative="1" as="geometry"><Array as="points"><mxPoint x="1540" y="180"/><mxPoint x="1540" y="148"/></Array></mxGeometry></mxCell><mxCell id="103" value="getResultTableBySiteOperationsId(site_option_id)" style="rounded=0;whiteSpace=wrap;html=1;strokeWidth=1;" vertex="1" parent="1"><mxGeometry x="1192.5" y="160" width="295" height="40" as="geometry"/></mxCell><mxCell id="104" style="edgeStyle=orthogonalEdgeStyle;rounded=0;orthogonalLoop=1;jettySize=auto;html=1;exitX=1;exitY=0.5;exitDx=0;exitDy=0;entryX=0;entryY=0.5;entryDx=0;entryDy=0;entryPerimeter=0;dashed=1;" edge="1" parent="1" source="105" target="107"><mxGeometry relative="1" as="geometry"/></mxCell><mxCell id="105" value="getAllResultsBySchemaAndTableName(schema, table_name)" style="rounded=0;whiteSpace=wrap;html=1;strokeWidth=1;" vertex="1" parent="1"><mxGeometry x="1167.5" y="320" width="345" height="40" as="geometry"/></mxCell><mxCell id="106" value="Parsers DB (PostgreSQL)" style="shape=cylinder3;whiteSpace=wrap;html=1;boundedLbl=1;backgroundOutline=1;size=15;strokeWidth=1;" vertex="1" parent="1"><mxGeometry x="1560" y="80" width="80" height="100" as="geometry"/></mxCell><mxCell id="107" value="Results DB (PostgreSQL)" style="shape=cylinder3;whiteSpace=wrap;html=1;boundedLbl=1;backgroundOutline=1;size=15;strokeWidth=1;" vertex="1" parent="1"><mxGeometry x="1560" y="260" width="80" height="100" as="geometry"/></mxCell></root></mxGraphModel></diagram></mxfile>